<svg viewBox="0 0 50 50" xmlns="http://www.w3.org/2000/svg"><title>personnage</title><path d="M41.754 11.517L46.71 26.01l-6.933 6.937-5.556-15.874 7.534-5.556z" fill="#fff" stroke="#000" stroke-linecap="round" stroke-linejoin="round" stroke-width=".70248756"/><path d="M21.37 16.652l12.81.517 5.477 15.928-13.12-1.358-5.167-15.088z" stroke="#000" stroke-width=".18748"/><path d="M19.686 41.375L27.884 32l-5.47-16.124-8.856 9.12 6.128 16.38z" fill="#fff" stroke="#000" stroke-linecap="round" stroke-linejoin="round" stroke-width=".70248756"/><path d="M3.576 24.715l17.34-12.29 20.805-.976-7.542 6.147-11.286.114-8.904 7.426-10.412-.42z" fill="#fff" stroke="#000" stroke-linecap="round" stroke-linejoin="round" stroke-width=".70248756"/><path d="M3.465 24.91L9.12 39.94l10.777 1.775-5.713-16.74-10.72-.064z"/><path d="M20.004 11.453c-2.882 1.006-4.966 2.55-4.653 3.447a.567.567 0 0 0 .11.183l.92 2.34c-.002.068.63.705.69.73 1.05.463 2.363.467 5.244-.54s4.72-2.404 4.408-3.3c-.037-.107.01-.537-.088-.616l-.822-2.355c-.006-.03-.01-.057-.02-.085s-.024-.054-.038-.08l-.026-.074-.016.006c-.543-.734-2.998-.603-5.708.343z" fill-rule="evenodd" stroke="#000" stroke-linecap="round" stroke-linejoin="round" stroke-width=".21671294"/><path d="M25.79 12.312l.677 1.94s.048.696-2.32 2.234c-2.29 1.488-.858-2.535-.933-2.438 0 0 1.22-.342 2.576-1.736z" fill="#fff" fill-rule="evenodd" stroke="#000" stroke-width=".27819"/><g fill-rule="evenodd"><path d="M11.593 16.528c-3.04 1.06-5.24 2.69-4.91 3.637.026.07.066.134.117.193l.968 2.47c0 .07.667.743.73.77 1.108.488 2.493.492 5.533-.57s4.98-2.537 4.65-3.483c-.038-.112.012-.566-.092-.65l-.867-2.485c-.005-.03-.01-.06-.02-.09s-.025-.055-.04-.083l-.027-.078-.017.005c-.573-.773-3.164-.634-6.023.363z" stroke="#000" stroke-linecap="round" stroke-linejoin="round" stroke-width=".22864541"/><path d="M16.552 16.636c.24.684-1.51 1.917-3.904 2.752s-4.53.96-4.77.275 1.51-1.917 3.905-2.752 4.53-.958 4.77-.274zM25.066 11.472c.24.684-1.51 1.917-3.904 2.752s-4.53.96-4.77.275 1.51-1.917 3.905-2.753 4.53-.96 4.77-.275z" fill="#fff"/><path d="M17.698 17.434l.715 2.048s.05.734-2.447 2.356c-2.417 1.57-.907-2.674-.986-2.572 0 0 1.288-.36 2.718-1.832z" fill="#fff" stroke="#000" stroke-width=".2935"/></g><path d="M30.386 9.434c-3.012 1.052-5.19 2.667-4.864 3.604.025.07.064.132.115.19l.96 2.448c0 .07.66.736.723.764 1.097.483 2.47.487 5.482-.565s4.935-2.515 4.608-3.452c-.04-.11.01-.56-.092-.643l-.86-2.462c-.006-.03-.01-.06-.02-.09s-.025-.054-.04-.082l-.027-.077-.016.01c-.567-.768-3.135-.63-5.968.358z" fill-rule="evenodd" stroke="#000" stroke-linecap="round" stroke-linejoin="round" stroke-width=".226"/><path d="M35.638 9.423a4.91 1.402-19.24 1 1-9.27 3.235 4.91 1.402-19.24 1 1 9.27-3.235z" fill="#fff" fill-rule="evenodd"/><path d="M36.435 10.332l.71 2.03s.048.726-2.426 2.334c-2.396 1.555-.9-2.65-.978-2.55 0 0 1.276-.356 2.693-1.814z" fill="#fff" fill-rule="evenodd" stroke="#000" stroke-width=".291"/></svg>